<?xml version="1.0" encoding="utf-8"?>
<!-- Generator: Adobe Illustrator 16.0.4, SVG Export Plug-In . SVG Version: 6.00 Build 0)  -->
<!DOCTYPE svg PUBLIC "-//W3C//DTD SVG 1.1//EN" "http://www.w3.org/Graphics/SVG/1.1/DTD/svg11.dtd">
<svg version="1.1" id="gr_x5F_icon14_x5F_routeMap" xmlns="http://www.w3.org/2000/svg" xmlns:xlink="http://www.w3.org/1999/xlink"
	 x="0px" y="0px" width="250px" height="250px" viewBox="0 0 250 250" enable-background="new 0 0 250 250" xml:space="preserve">
<g id="gr_x5F_big_34_">
	<path id="gr_219_" fill="#F3BA48" d="M237.668,172.701c0,9.543-6.756,21.251-15.025,26.019l-82.621,47.702
		c-8.262,4.771-21.78,4.771-30.042,0L27.354,198.72c-8.262-4.768-15.021-16.476-15.021-26.019V77.299
		c0-9.539,6.76-21.248,15.021-26.019l82.624-47.702c8.263-4.771,21.782-4.771,30.043,0l82.621,47.702
		c8.27,4.771,15.024,16.479,15.024,26.019L237.668,172.701L237.668,172.701z"/>
	<g>
		<path fill="#FFFFFF" d="M189.07,79.903l-28.43-10.344v-0.053l-0.072,0.024l-0.07-0.024v0.053L125,82.478L89.499,69.56v-0.053
			l-0.073,0.024l-0.069-0.024v0.053l-28.43,10.343c-3.944,1.438-7.143,5.801-7.143,9.745v75c0,3.943,3.198,5.978,7.143,4.541
			l28.498-10.373l35.502,12.923v0.052l0.073-0.027l0.069,0.027v-0.052l35.5-12.923l28.502,10.373
			c3.943,1.437,7.143-0.598,7.143-4.541v-75C196.213,85.704,193.014,81.341,189.07,79.903z M92.261,151.225
			c0,1.971-1.602,3.571-3.572,3.571c-1.97,0-3.571-1.603-3.571-3.571v-7.269c0-1.972,1.602-3.571,3.571-3.571
			c1.971,0,3.572,1.602,3.572,3.571V151.225z M92.261,129.423c0,1.974-1.602,3.571-3.572,3.571c-1.97,0-3.571-1.598-3.571-3.571
			v-7.266c0-1.974,1.602-3.571,3.571-3.571c1.971,0,3.572,1.598,3.572,3.571V129.423z M92.261,107.624
			c0,1.971-1.602,3.571-3.572,3.571c-1.97,0-3.571-1.601-3.571-3.571v-7.269c0-1.974,1.602-3.571,3.571-3.571
			c1.971,0,3.572,1.598,3.572,3.571V107.624z M92.261,85.822c0,1.971-1.602,3.571-3.572,3.571c-1.97,0-3.571-1.601-3.571-3.571
			v-7.27c0-1.971,1.602-3.571,3.571-3.571c1.971,0,3.572,1.601,3.572,3.571V85.822z M128.572,162.736
			c0,1.975-1.598,3.572-3.572,3.572c-1.975,0-3.571-1.599-3.571-3.572v-7.264c0-1.976,1.597-3.572,3.571-3.572
			c1.975,0,3.572,1.598,3.572,3.572V162.736z M128.572,140.938c0,1.972-1.598,3.572-3.572,3.572c-1.975,0-3.571-1.602-3.571-3.572
			v-7.268c0-1.971,1.597-3.572,3.571-3.572c1.975,0,3.572,1.603,3.572,3.572V140.938z M128.572,119.137
			c0,1.975-1.598,3.572-3.572,3.572c-1.975,0-3.571-1.598-3.571-3.572v-7.268c0-1.971,1.597-3.572,3.571-3.572
			c1.975,0,3.572,1.602,3.572,3.572V119.137z M128.572,97.335c0,1.975-1.598,3.572-3.572,3.572c-1.975,0-3.571-1.598-3.571-3.572
			V90.07c0-1.974,1.597-3.571,3.571-3.571c1.975,0,3.572,1.598,3.572,3.571V97.335z M164.879,151.225
			c0,1.971-1.598,3.571-3.572,3.571c-1.971,0-3.57-1.603-3.57-3.571v-7.269c0-1.972,1.601-3.571,3.57-3.571
			c1.976,0,3.572,1.602,3.572,3.571V151.225z M164.879,129.423c0,1.974-1.598,3.571-3.572,3.571c-1.971,0-3.57-1.598-3.57-3.571
			v-7.266c0-1.974,1.601-3.571,3.57-3.571c1.976,0,3.572,1.598,3.572,3.571V129.423z M164.879,107.624
			c0,1.971-1.598,3.571-3.572,3.571c-1.971,0-3.57-1.601-3.57-3.571v-7.269c0-1.974,1.601-3.571,3.57-3.571
			c1.976,0,3.572,1.598,3.572,3.571V107.624z M164.879,85.822c0,1.971-1.598,3.571-3.572,3.571c-1.971,0-3.57-1.601-3.57-3.571
			v-7.27c0-1.971,1.601-3.571,3.57-3.571c1.976,0,3.572,1.601,3.572,3.571V85.822z"/>
		<g>
			<path fill="#FFFFFF" d="M146.806,122.648c-3.875,0-7.493-1.574-10.188-4.445c-2.468-2.628-24.029-26.133-24.029-43.618
				c0-18.868,15.352-34.22,34.21-34.22c18.875,0,34.227,15.352,34.227,34.22c0,17.484-21.562,40.989-24.023,43.61
				C154.306,121.075,150.68,122.648,146.806,122.648z M146.796,52.118c-12.379,0-22.448,10.078-22.448,22.468
				c0,9.726,12.78,26.977,20.834,35.575c1.146,1.215,2.093,1.223,3.248-0.009c8.051-8.597,20.843-25.874,20.843-35.566
				C169.272,62.196,159.186,52.118,146.796,52.118z M146.839,62.85c-5.876,0-10.655,4.778-10.655,10.655
				c0,5.876,4.779,10.655,10.655,10.655c5.885,0,10.673-4.778,10.673-10.655C157.512,67.63,152.724,62.85,146.839,62.85z"/>
			<path fill="#F3BA48" d="M146.796,46.241c-15.635,0-28.333,12.683-28.333,28.344c0,15.669,22.432,39.593,22.432,39.593
				c3.258,3.457,8.564,3.457,11.819,0c0,0,22.435-23.925,22.435-39.593C175.148,58.925,162.45,46.241,146.796,46.241z
				 M146.796,83.733c-5.784,0-10.495-4.713-10.495-10.496c0-5.784,4.711-10.497,10.495-10.497c5.794,0,10.515,4.713,10.515,10.497
				C157.311,79.021,152.59,83.733,146.796,83.733z"/>
		</g>
	</g>
</g>
</svg>
