<?xml version="1.0" encoding="utf-8"?>
<!-- Generator: Adobe Illustrator 16.0.4, SVG Export Plug-In . SVG Version: 6.00 Build 0)  -->
<!DOCTYPE svg PUBLIC "-//W3C//DTD SVG 1.1//EN" "http://www.w3.org/Graphics/SVG/1.1/DTD/svg11.dtd">
<svg version="1.1" id="gr_x5F_icon14_x5F_routeMap" xmlns="http://www.w3.org/2000/svg" xmlns:xlink="http://www.w3.org/1999/xlink"
	 x="0px" y="0px" width="250px" height="250px" viewBox="0 0 250 250" enable-background="new 0 0 250 250" xml:space="preserve">
<g id="gr_x5F_big_34_">
	<path id="gr_219_" fill="#F3BA48" d="M237.668,172.701c0,9.543-6.756,21.251-15.025,26.019l-82.621,47.702
		c-8.262,4.771-21.781,4.771-30.043,0L27.354,198.72c-8.262-4.768-15.021-16.476-15.021-26.019V77.299
		c0-9.539,6.76-21.248,15.021-26.019l82.624-47.702c8.263-4.771,21.782-4.771,30.043,0l82.621,47.702
		c8.27,4.771,15.025,16.479,15.025,26.019V172.701z"/>
	<g>
		<path fill="#FFFFFF" d="M189.07,79.903l-28.43-10.344v-0.053l-0.072,0.024l-0.07-0.024v0.053L125,82.478L89.499,69.56v-0.053
			l-0.073,0.024l-0.069-0.024v0.053L60.927,79.903c-3.944,1.438-7.143,5.801-7.143,9.745v75c0,3.944,3.198,5.978,7.143,4.541
			l28.498-10.372l35.502,12.922v0.052l0.073-0.027l0.069,0.027v-0.052l35.499-12.922l28.502,10.372
			c3.943,1.437,7.143-0.597,7.143-4.541v-75C196.213,85.704,193.014,81.341,189.07,79.903z M92.261,151.225
			c0,1.97-1.602,3.571-3.572,3.571c-1.97,0-3.571-1.602-3.571-3.571v-7.269c0-1.971,1.602-3.571,3.571-3.571
			c1.971,0,3.572,1.601,3.572,3.571V151.225z M92.261,129.423c0,1.974-1.602,3.571-3.572,3.571c-1.97,0-3.571-1.598-3.571-3.571
			v-7.266c0-1.974,1.602-3.571,3.571-3.571c1.971,0,3.572,1.598,3.572,3.571V129.423z M92.261,107.624
			c0,1.971-1.602,3.571-3.572,3.571c-1.97,0-3.571-1.601-3.571-3.571v-7.269c0-1.974,1.602-3.571,3.571-3.571
			c1.971,0,3.572,1.598,3.572,3.571V107.624z M92.261,85.822c0,1.971-1.602,3.571-3.572,3.571c-1.97,0-3.571-1.601-3.571-3.571
			v-7.269c0-1.971,1.602-3.571,3.571-3.571c1.971,0,3.572,1.601,3.572,3.571V85.822z M128.572,162.737
			c0,1.974-1.598,3.571-3.572,3.571c-1.975,0-3.571-1.598-3.571-3.571v-7.265c0-1.975,1.597-3.572,3.571-3.572
			c1.974,0,3.572,1.598,3.572,3.572V162.737z M128.572,140.938c0,1.971-1.598,3.572-3.572,3.572c-1.975,0-3.571-1.602-3.571-3.572
			v-7.268c0-1.971,1.597-3.572,3.571-3.572c1.974,0,3.572,1.602,3.572,3.572V140.938z M128.572,119.137
			c0,1.975-1.598,3.572-3.572,3.572c-1.975,0-3.571-1.598-3.571-3.572v-7.268c0-1.971,1.597-3.572,3.571-3.572
			c1.974,0,3.572,1.602,3.572,3.572V119.137z M128.572,97.335c0,1.975-1.598,3.572-3.572,3.572c-1.975,0-3.571-1.598-3.571-3.572
			V90.07c0-1.974,1.597-3.571,3.571-3.571c1.974,0,3.572,1.598,3.572,3.571V97.335z M164.879,151.225
			c0,1.97-1.598,3.571-3.572,3.571c-1.971,0-3.57-1.602-3.57-3.571v-7.269c0-1.971,1.6-3.571,3.57-3.571
			c1.975,0,3.572,1.601,3.572,3.571V151.225z M164.879,129.423c0,1.974-1.598,3.571-3.572,3.571c-1.971,0-3.57-1.598-3.57-3.571
			v-7.266c0-1.974,1.6-3.571,3.57-3.571c1.975,0,3.572,1.598,3.572,3.571V129.423z M164.879,107.624
			c0,1.971-1.598,3.571-3.572,3.571c-1.971,0-3.57-1.601-3.57-3.571v-7.269c0-1.974,1.6-3.571,3.57-3.571
			c1.975,0,3.572,1.598,3.572,3.571V107.624z M164.879,85.822c0,1.971-1.598,3.571-3.572,3.571c-1.971,0-3.57-1.601-3.57-3.571
			v-7.269c0-1.971,1.6-3.571,3.57-3.571c1.975,0,3.572,1.601,3.572,3.571V85.822z"/>
		<g>
			<path fill="#F3BA48" d="M155.629,54.987c-13.029,0-23.611,10.568-23.611,23.619c0,13.058,18.693,32.994,18.693,32.994
				c2.715,2.881,7.137,2.881,9.85,0c0,0,18.695-19.937,18.695-32.994C179.256,65.556,168.674,54.987,155.629,54.987z M155.629,86.23
				c-4.82,0-8.746-3.927-8.746-8.747s3.926-8.747,8.746-8.747c4.828,0,8.762,3.927,8.762,8.747S160.457,86.23,155.629,86.23z"/>
			<path fill="#FFFFFF" d="M155.637,118.659c-3.23,0-6.244-1.312-8.49-3.704c-2.057-2.19-20.025-21.777-20.025-36.349
				c0-15.723,12.793-28.516,28.508-28.516c15.73,0,28.523,12.793,28.523,28.516c0,14.571-17.969,34.158-20.02,36.342
				C161.887,117.348,158.865,118.659,155.637,118.659z M155.629,59.884c-10.316,0-18.707,8.398-18.707,18.723
				c0,8.105,10.65,22.481,17.361,29.646c0.955,1.012,1.744,1.019,2.707-0.007c6.709-7.164,17.369-21.562,17.369-29.639
				C174.359,68.282,165.953,59.884,155.629,59.884z M155.664,68.827c-4.896,0-8.879,3.982-8.879,8.879
				c0,4.897,3.982,8.88,8.879,8.88c4.904,0,8.895-3.982,8.895-8.88C164.559,72.81,160.568,68.827,155.664,68.827z"/>
		</g>
	</g>
</g>
</svg>
